<mxfile host="app.diagrams.net" modified="2023-08-23T00:36:33.150Z" agent="Mozilla/5.0 (Windows NT 10.0; Win64; x64) AppleWebKit/537.36 (KHTML, like Gecko) Chrome/116.0.0.0 Safari/537.36" etag="gYlItghza-ndYdHIyKvO" version="21.6.9" type="github">
  <diagram name="PÃ¡gina-1" id="pmiqno25pdLh-rv0fECQ">
    <mxGraphModel dx="733" dy="372" grid="1" gridSize="10" guides="1" tooltips="1" connect="1" arrows="1" fold="1" page="1" pageScale="1" pageWidth="827" pageHeight="1169" math="0" shadow="0">
      <root>
        <mxCell id="0" />
        <mxCell id="1" parent="0" />
        <mxCell id="qCAHFOTsjief-a_6bOyu-1" value="Cliente" style="swimlane;fontStyle=1;align=center;verticalAlign=top;childLayout=stackLayout;horizontal=1;startSize=26;horizontalStack=0;resizeParent=1;resizeParentMax=0;resizeLast=0;collapsible=1;marginBottom=0;whiteSpace=wrap;html=1;" vertex="1" parent="1">
          <mxGeometry x="80" y="80" width="160" height="200" as="geometry" />
        </mxCell>
        <mxCell id="qCAHFOTsjief-a_6bOyu-2" value="- nome: String&lt;br&gt;- telefone: String" style="text;strokeColor=none;fillColor=none;align=left;verticalAlign=top;spacingLeft=4;spacingRight=4;overflow=hidden;rotatable=0;points=[[0,0.5],[1,0.5]];portConstraint=eastwest;whiteSpace=wrap;html=1;" vertex="1" parent="qCAHFOTsjief-a_6bOyu-1">
          <mxGeometry y="26" width="160" height="44" as="geometry" />
        </mxCell>
        <mxCell id="qCAHFOTsjief-a_6bOyu-3" value="" style="line;strokeWidth=1;fillColor=none;align=left;verticalAlign=middle;spacingTop=-1;spacingLeft=3;spacingRight=3;rotatable=0;labelPosition=right;points=[];portConstraint=eastwest;strokeColor=inherit;" vertex="1" parent="qCAHFOTsjief-a_6bOyu-1">
          <mxGeometry y="70" width="160" height="8" as="geometry" />
        </mxCell>
        <mxCell id="qCAHFOTsjief-a_6bOyu-4" value="+ getNome: String&lt;br&gt;+ getTelefone: String&lt;br&gt;+ getConta: ContaCorrente&lt;br&gt;+ setNome(String)&lt;br&gt;+ setTelefone(String)&lt;br&gt;+ setConta(ContaCorrente)&lt;br&gt;+ toString: String" style="text;strokeColor=none;fillColor=none;align=left;verticalAlign=top;spacingLeft=4;spacingRight=4;overflow=hidden;rotatable=0;points=[[0,0.5],[1,0.5]];portConstraint=eastwest;whiteSpace=wrap;html=1;" vertex="1" parent="qCAHFOTsjief-a_6bOyu-1">
          <mxGeometry y="78" width="160" height="122" as="geometry" />
        </mxCell>
        <mxCell id="qCAHFOTsjief-a_6bOyu-5" value="ContaCorrente" style="swimlane;fontStyle=1;align=center;verticalAlign=top;childLayout=stackLayout;horizontal=1;startSize=26;horizontalStack=0;resizeParent=1;resizeParentMax=0;resizeLast=0;collapsible=1;marginBottom=0;whiteSpace=wrap;html=1;" vertex="1" parent="1">
          <mxGeometry x="480" y="80" width="160" height="200" as="geometry" />
        </mxCell>
        <mxCell id="qCAHFOTsjief-a_6bOyu-6" value="- numero: int&lt;br&gt;- saldo: BigDecimal" style="text;strokeColor=none;fillColor=none;align=left;verticalAlign=top;spacingLeft=4;spacingRight=4;overflow=hidden;rotatable=0;points=[[0,0.5],[1,0.5]];portConstraint=eastwest;whiteSpace=wrap;html=1;" vertex="1" parent="qCAHFOTsjief-a_6bOyu-5">
          <mxGeometry y="26" width="160" height="44" as="geometry" />
        </mxCell>
        <mxCell id="qCAHFOTsjief-a_6bOyu-7" value="" style="line;strokeWidth=1;fillColor=none;align=left;verticalAlign=middle;spacingTop=-1;spacingLeft=3;spacingRight=3;rotatable=0;labelPosition=right;points=[];portConstraint=eastwest;strokeColor=inherit;" vertex="1" parent="qCAHFOTsjief-a_6bOyu-5">
          <mxGeometry y="70" width="160" height="8" as="geometry" />
        </mxCell>
        <mxCell id="qCAHFOTsjief-a_6bOyu-8" value="+ getNumero: int&lt;br&gt;+ getSaldo: BigDecimal&lt;br&gt;+ setNumero(int)&lt;br&gt;+ setSaldo(BigDecimal)&lt;br&gt;+ deposita(BigDecimal)&lt;br&gt;+ saca(BigDecimal)&lt;br&gt;+ toString: String" style="text;strokeColor=none;fillColor=none;align=left;verticalAlign=top;spacingLeft=4;spacingRight=4;overflow=hidden;rotatable=0;points=[[0,0.5],[1,0.5]];portConstraint=eastwest;whiteSpace=wrap;html=1;" vertex="1" parent="qCAHFOTsjief-a_6bOyu-5">
          <mxGeometry y="78" width="160" height="122" as="geometry" />
        </mxCell>
        <mxCell id="qCAHFOTsjief-a_6bOyu-10" style="edgeStyle=orthogonalEdgeStyle;rounded=0;orthogonalLoop=1;jettySize=auto;html=1;entryX=0;entryY=0.5;entryDx=0;entryDy=0;" edge="1" parent="1" source="qCAHFOTsjief-a_6bOyu-2" target="qCAHFOTsjief-a_6bOyu-6">
          <mxGeometry relative="1" as="geometry" />
        </mxCell>
        <mxCell id="qCAHFOTsjief-a_6bOyu-11" value="1..1" style="text;html=1;strokeColor=none;fillColor=none;align=center;verticalAlign=middle;whiteSpace=wrap;rounded=0;" vertex="1" parent="1">
          <mxGeometry x="240" y="100" width="60" height="30" as="geometry" />
        </mxCell>
        <mxCell id="qCAHFOTsjief-a_6bOyu-12" value="0..n" style="text;html=1;strokeColor=none;fillColor=none;align=center;verticalAlign=middle;whiteSpace=wrap;rounded=0;" vertex="1" parent="1">
          <mxGeometry x="414" y="100" width="60" height="30" as="geometry" />
        </mxCell>
      </root>
    </mxGraphModel>
  </diagram>
</mxfile>
